<svg id="Layer_1" data-name="Layer 1" xmlns="http://www.w3.org/2000/svg" viewBox="0 0 228.22 315.69"><defs><style>.cls-1{fill:#fff;}</style></defs><g id="OBJECTS"><polygon class="cls-1" points="184.05 0 168.27 0 124.1 0 106.92 0 62.75 0 62.75 39.62 62.75 146.36 106.92 146.36 106.92 39.62 124.1 39.62 124.1 146.36 168.27 146.36 168.27 39.62 184.05 39.62 184.05 161.09 106.92 161.09 62.75 161.09 62.75 200.7 62.75 218.58 62.75 258.19 106.92 258.19 184.05 258.19 184.05 276.07 44.17 276.07 44.17 0 0 0 0 315.69 38.04 315.69 44.17 315.69 184.05 315.69 228.22 315.69 228.22 276.07 228.22 258.19 228.22 218.58 184.05 218.58 106.92 218.58 106.92 200.7 184.05 200.7 228.22 200.7 228.22 161.09 228.22 39.62 228.22 0 184.05 0"/></g></svg>