<?xml version="1.0" encoding="utf-8"?>
<!-- Generator: Adobe Illustrator 26.0.1, SVG Export Plug-In . SVG Version: 6.00 Build 0)  -->
<svg version="1.1" id="Layer_1" xmlns="http://www.w3.org/2000/svg" xmlns:xlink="http://www.w3.org/1999/xlink" x="0px" y="0px"
	 viewBox="0 0 228.2 315.7" style="enable-background:new 0 0 228.2 315.7;" xml:space="preserve">
<g id="OBJECTS">
	<polygon points="184.1,0 168.3,0 124.1,0 106.9,0 62.8,0 62.8,39.6 62.8,146.4 106.9,146.4 106.9,39.6 124.1,39.6 124.1,146.4 
		168.3,146.4 168.3,39.6 184.1,39.6 184.1,161.1 106.9,161.1 62.8,161.1 62.8,200.7 62.8,218.6 62.8,258.2 106.9,258.2 184.1,258.2 
		184.1,276.1 44.2,276.1 44.2,0 0,0 0,315.7 38,315.7 44.2,315.7 184.1,315.7 228.2,315.7 228.2,276.1 228.2,258.2 228.2,218.6 
		184.1,218.6 106.9,218.6 106.9,200.7 184.1,200.7 228.2,200.7 228.2,161.1 228.2,39.6 228.2,0 	"/>
</g>
</svg>
